<?xml version="1.0" encoding="UTF-8"?>
<svg id="Layer_1" data-name="Layer 1" xmlns="http://www.w3.org/2000/svg" xmlns:xlink="http://www.w3.org/1999/xlink" viewBox="0 0 371.46 287.95">
  <defs>
    <style>
      .cls-1 {
        fill: url(#linear-gradient);
      }

      .cls-2 {
        stroke-width: 6px;
      }

      .cls-2, .cls-3 {
        stroke-miterlimit: 10;
      }

      .cls-2, .cls-3, .cls-4, .cls-5 {
        fill: none;
        stroke: #411d18;
      }

      .cls-6 {
        fill: #fffbf3;
      }

      .cls-7 {
        fill: #e6d5ce;
      }

      .cls-8 {
        fill: #ebdacc;
      }

      .cls-9 {
        fill: #411d18;
      }

      .cls-3 {
        stroke-width: 7px;
      }

      .cls-3, .cls-4, .cls-5 {
        stroke-linecap: round;
      }

      .cls-4 {
        stroke-width: 4px;
      }

      .cls-4, .cls-5 {
        stroke-linejoin: round;
      }

      .cls-10 {
        fill: url(#linear-gradient-2);
      }

      .cls-5 {
        stroke-width: 3px;
      }
    </style>
    <linearGradient id="linear-gradient" x1="101.25" y1="161" x2="101.25" y2="141.25" gradientUnits="userSpaceOnUse">
      <stop offset="0" stop-color="#fdebd8"/>
      <stop offset="1" stop-color="#fcd2bc"/>
    </linearGradient>
    <linearGradient id="linear-gradient-2" x1="270.58" y1="160.69" x2="270.58" y2="140.93" xlink:href="#linear-gradient"/>
  </defs>
  <ellipse class="cls-7" cx="188.91" cy="258.73" rx="176.65" ry="29.22"/>
  <path class="cls-6" d="m155.94,11.97c.12-.64-27.13,2.49-28.66,2.83C63.71,28.82-2.22,94.71,3.33,163.62c2.49,30.94,17.22,58.31,41.89,77.36,28.82,22.25,65.37,31.05,101.08,33.71,36.38,2.71,75.45,1.35,111.37-5.17,12.05-2.19,23.95-5.3,35.41-9.62,14.52-5.48,28.27-13.1,40-23.32,21.48-18.72,36.67-47.39,35.28-76.15-1.49-30.86-17.75-59.48-36.57-83.13C270.88.71,196.6,12.65,196.6,12.65c0,0-36.68-21.25-40.66-.68Z"/>
  <path class="cls-7" d="m322.51,247.2c-19.18,16.02-144.89,39.92-239.61,14.61C31.63,248.11,8.04,207.76,3.88,168.93c7.81,15.93,19.15,33.27,34.18,42.24,32.19,19.2,123.67,47.44,186.36,27.11,62.68-20.33,111.24-42.92,91.48-117.46-19.77-74.54-77.37-104.47-108.43-88.09l-2.54-4.8s16.3-15.01,61.54-2.91c20.89,9.4,43.93,25.38,65.33,52.27,74.2,93.26,19.99,145.45-9.29,169.91Z"/>
  <path class="cls-2" d="m155.94,11.97c.12-.64-27.13,2.49-28.66,2.83C63.71,28.82-2.22,94.71,3.33,163.62c2.49,30.94,17.22,58.31,41.89,77.36,28.82,22.25,65.37,31.05,101.08,33.71,36.38,2.71,75.45,1.35,111.37-5.17,12.05-2.19,23.95-5.3,35.41-9.62,14.52-5.48,28.27-13.1,40-23.32,21.48-18.72,36.67-47.39,35.28-76.15-1.49-30.86-17.75-59.48-36.57-83.13C270.88.71,196.6,12.65,196.6,12.65c0,0-36.68-21.25-40.66-.68Z"/>
  <path class="cls-8" d="m182.26,35.65s-25.85,4.9-40.09,40.38c-5.36,13.36-12.05,5.74-8.47-4.33,5.17-14.55,27.2-45.36,48.56-36.05Z"/>
  <path class="cls-8" d="m210.42,37.81s25.19,13.51,33.48,50.82c2.82,12.71,13.27,8.75,10.73-5.36-2.73-15.19-15.53-44.89-44.21-45.46Z"/>
  <path class="cls-9" d="m203.99,32.57c-2.22-9.38-9.67-16.03-17.17-21.49-1.2-.85-1.47-2.56-.51-3.7,1.92-2.11,4.6.19,6.62.99,8.65,4.78,15.68,13.81,16.05,23.95-.16,3.18-4.32,3.37-4.99.25h0Z"/>
  <ellipse class="cls-9" cx="124.45" cy="128.64" rx="15.2" ry="14.85" transform="translate(-26 31.68) rotate(-13.15)"/>
  <ellipse class="cls-9" cx="249.23" cy="128.64" rx="15.2" ry="14.85"/>
  <ellipse class="cls-1" cx="101.25" cy="151.13" rx="15.69" ry="9.88"/>
  <ellipse class="cls-10" cx="270.58" cy="150.81" rx="15.69" ry="9.88"/>
  <path class="cls-5" d="m150.16,59.27s6.87-13.18,22.04-19.93"/>
  <path class="cls-5" d="m222.87,43.33s15.5,11.28,19.2,22.43"/>
  <path class="cls-5" d="m225.28,26.98s33.94-1.94,50.38,20.13"/>
  <path class="cls-8" d="m167.67,27.84s-23.95-4.28-54.64,22.54c-10.84,9.48-11.44-.42-3.11-7.48,11.78-9.98,38.4-27.67,57.74-15.06Z"/>
  <path class="cls-5" d="m160.42,27.74s-26.07,1.88-43.79,18.12"/>
  <path class="cls-3" d="m201.83,130.16s-.19,10.43-13.55,10.43c-17.51,0-16.38-10.35-16.38-10.35"/>
  <path class="cls-4" d="m163.81,15.51c-2.64-1.13-8.66-2.82-16.28-1.98"/>
</svg>