<?xml version="1.0" encoding="UTF-8"?> <!-- Generator: Adobe Illustrator 23.0.1, SVG Export Plug-In . SVG Version: 6.00 Build 0) --> <svg xmlns="http://www.w3.org/2000/svg" xmlns:xlink="http://www.w3.org/1999/xlink" id="Layer_1" x="0px" y="0px" viewBox="0 0 471.3 70.2" style="enable-background:new 0 0 471.3 70.2;" xml:space="preserve"> <style type="text/css"> .Graphic_x0020_Style_x0020_4{fill:none;} .st0{fill:#009ADE;} .st1{fill:#003764;} .st2{fill:#9164CC;} .st3{clip-path:url(#SVGID_2_);fill:url(#SVGID_3_);} .st4{fill:#FFFFFF;} .st5{fill:#201747;} .st6{fill-rule:evenodd;clip-rule:evenodd;fill:#10CFC9;} .st7{fill:#3D1152;} .st8{fill:#922C48;} .st9{fill-rule:evenodd;clip-rule:evenodd;fill:#922C48;} .st10{fill:none;stroke:#8E8E8E;stroke-miterlimit:10;} </style> <g> <g> <polygon class="st0" points="14.9,56 14.9,28 0,28 0,69.9 44.7,69.9 44.7,56 "></polygon> <polygon class="st1" points="74.4,0 0,0 0,21 14.9,21 14.9,14.1 59.5,14.1 59.5,56 52.1,56 52.1,69.9 74.4,69.9 "></polygon> </g> <g> <path class="st1" d="M94.1,0h22.7v52h32.6v17.9H94.1V0z"></path> <path class="st1" d="M159,0h56.9V18h-34.2v8.7H211v16.6h-29.4v26.6H159V0z"></path> </g> <path class="st0" d="M233.7,0h46.5v5.7h-40.1V31h37.6v5.7h-37.6v27.6h40.6v5.7h-47V0z"></path> <path class="st0" d="M289.7,0H313c20.4,0.5,31,11.8,31,34.9c0,23.1-10.6,34.5-31,34.9h-23.3V0z M296.1,64.3h13.7 c19.3,0,27.7-8.3,27.7-29.3c0-20.9-8.4-29.3-27.7-29.3h-13.7V64.3z"></path> <path class="st0" d="M411.9,68.8h-4.6l-0.8-12.3h-0.2c-4.5,9.6-13.6,13.7-23.3,13.7c-21.2,0-31.8-16.6-31.8-35.1 c0-18.5,10.6-35.1,31.8-35.1c14.2,0,25.6,7.6,28.1,22.4h-6.4c-0.8-7.7-9-16.9-21.7-16.9c-17.8,0-25.4,14.9-25.4,29.6 c0,14.7,7.5,29.6,25.4,29.6c14.9,0,23.6-10.4,23.3-24.7h-22.9v-5.5h28.6V68.8z"></path> <path class="st0" d="M424.3,0h46.5v5.7h-40.1V31h37.6v5.7h-37.6v27.6h40.6v5.7h-47V0z"></path> </g> <g> <path class="st2" d="M433.9,406.8v-18.2h-13.2v18.2h-9.3v-41c0-1,0.2-1.9,0.9-2.6c0.6-0.7,1.3-1.3,1.9-1.7l12.9-6.8 c0.7-0.3,1.4-0.5,2.1-0.5c0.9,0,1.6,0.2,2.2,0.5l9.8,6.4c0.6,0.4,1.1,0.9,1.5,1.6c0.4,0.7,0.5,1.4,0.5,2.2v41.9H433.9z M433.9,366.7l-4.8-3.2l-8.4,4.3v12.2h13.2V366.7z"></path> <path class="st2" d="M477.6,406.8l-0.6-19.6l-8.9-6.4l-3.1,3.8v22.2h-9.3v-51.3h9.3v17.3l11.7-15.7c0.9-1.1,2.1-1.7,3.5-1.7h6.2 l-0.1,8.6h-4.6l-7.7,10.2l9.9,6.2c1,0.7,1.6,1.5,1.9,2.3c0.3,0.8,0.5,1.8,0.5,2.8l0.6,21.3H477.6z"></path> <path class="st2" d="M519.7,406.8l-0.4-10.9l-8.6-10.4l2.8,1.2l-7.1,1.6l1.7-2.9v21.4h-9.3v-51l25.1-0.4c0.9,0,1.6,0.2,2.2,0.5 c0.6,0.3,1.1,0.7,1.4,1.2c0.4,0.5,0.7,1,0.8,1.5c0.2,0.5,0.3,1,0.3,1.4v19.2c0,0.8-0.4,1.7-1.1,2.7c-0.7,1-1.9,1.7-3.6,2.1 l-3.7,0.9l0.4-1.1l5.3,5.6c1.2,1.3,1.8,2.8,1.9,4.6l0.4,12.6H519.7z M519.4,363.8h-11.2v16.3l11.2-2.7V363.8z"></path> <path class="st2" d="M563.5,406.8v-18.2h-13.2v18.2h-9.3v-41c0-1,0.2-1.9,0.9-2.6c0.6-0.7,1.3-1.3,1.9-1.7l12.9-6.8 c0.7-0.3,1.4-0.5,2.1-0.5c0.9,0,1.6,0.2,2.2,0.5l9.8,6.4c0.6,0.4,1.1,0.9,1.5,1.6c0.4,0.7,0.5,1.4,0.5,2.2v41.9H563.5z M563.5,366.7l-4.8-3.2l-8.4,4.3v12.2h13.2V366.7z"></path> <rect x="585.3" y="355.5" class="st2" width="9.3" height="51.3"></rect> <path class="st2" d="M616.5,360.8h0.3l5.5-3.7c1.6-1.1,3.3-1.7,5.2-1.7h6.1c0.9,0,1.6,0.2,2.2,0.5c0.6,0.3,1.1,0.7,1.4,1.2 c0.4,0.5,0.7,1,0.8,1.5c0.2,0.5,0.3,1,0.3,1.4v46.6H629v-43h-3l-9.4,5.8v37.3h-9.3v-51.3h9.2V360.8z"></path> <path class="st2" d="M682.5,396.5c0,1-0.2,1.9-0.9,2.6c-0.6,0.7-1.3,1.3-1.9,1.7l-12.9,6.8c-0.7,0.3-1.4,0.5-2.1,0.5 c-0.9,0-1.6-0.2-2.2-0.5l-9.8-6.4c-0.6-0.4-1.1-0.9-1.5-1.6c-0.4-0.7-0.5-1.4-0.5-2.2v-37.1c0-0.4,0.1-0.9,0.3-1.4 c0.2-0.5,0.4-1,0.8-1.5c0.4-0.5,0.9-0.9,1.4-1.2c0.6-0.3,1.3-0.5,2.2-0.5h22.4c0.9,0,1.6,0.2,2.2,0.5s1.1,0.7,1.4,1.2 c0.4,0.5,0.7,1,0.8,1.5c0.2,0.5,0.3,1,0.3,1.4V396.5z M673.2,394.8v-31h-13.2V396l4.8,3.2L673.2,394.8z"></path> <g> <defs> <path id="SVGID_1_" d="M394.4,408c0,0.1,0.1,0.1,0.1,0.2c-0.1-0.1-0.1-0.3-0.2-0.4C394.3,407.8,394.4,407.9,394.4,408"></path> </defs> <clipPath id="SVGID_2_"> <use xlink:href="#SVGID_1_" style="overflow:visible;"></use> </clipPath> <linearGradient id="SVGID_3_" gradientUnits="userSpaceOnUse" x1="-1497.4606" y1="71.0405" x2="-1496.4606" y2="71.0405" gradientTransform="matrix(0.2193 0 0 -0.2193 722.6724 423.5387)"> <stop offset="0" style="stop-color:#49BCEC"></stop> <stop offset="0.2872" style="stop-color:#42B6E8"></stop> <stop offset="0.7134" style="stop-color:#2EA7DE"></stop> <stop offset="1" style="stop-color:#149BD6"></stop> </linearGradient> <rect x="394.3" y="407.8" class="st3" width="0.2" height="0.4"></rect> </g> <path class="st4" d="M394.3,407.8c0,0.1,0.1,0.1,0.1,0.2c0,0.1,0.1,0.1,0.1,0.2C394.4,408,394.4,407.9,394.3,407.8"></path> <path class="st5" d="M412.3,452.1v-34h19.8v6.3h-13v8.1h12v6.3h-12v10.3h13v6.3h-16.4c-0.6,0-1.2-0.1-1.6-0.4 c-0.4-0.2-0.8-0.5-1-0.9c-0.3-0.3-0.5-0.7-0.6-1.1C412.4,452.8,412.3,452.5,412.3,452.1"></path> <path class="st5" d="M440.3,455.5v-37.1l20-0.3c1,0,1.8,0.3,2.4,1c0.5,0.6,0.8,1.3,0.8,2v29.2c0,0.6-0.1,1.1-0.4,1.6 c-0.3,0.5-0.6,0.9-1.1,1.2l-4.6,2.8c-0.5,0.3-1.2,0.5-2.3,0.5c-0.3,0-0.6,0-0.9-0.1l-7.9-2.4l-0.5,1.6H440.3z M454.7,450.5l2-1.3 v-25.1h-9.7v24.4L454.7,450.5z"></path> <path class="st5" d="M472.4,448.7v-27.1c0-0.3,0.1-0.7,0.2-1.1c0.1-0.4,0.3-0.8,0.6-1.1c0.3-0.3,0.6-0.6,1-0.9 c0.4-0.2,0.9-0.3,1.6-0.3h19l-0.5,10.6h-6.1v-4.6h-9v23.4l3.5,2.3l5.5-3.1v-8.3h-5.2v-5.9h12V448c-0.1,1.4-0.7,2.3-1.7,2.9 l-9.2,5.2c-0.5,0.2-1,0.4-1.5,0.4c-0.7,0-1.2-0.1-1.6-0.4l-7.1-4.7c-0.5-0.3-0.8-0.7-1.1-1.2C472.5,449.8,472.4,449.3,472.4,448.7"></path> <path class="st5" d="M503.8,452.1v-34h19.8v6.3h-13v8.1h12v6.3h-12v10.3h13v6.3h-16.4c-0.6,0-1.2-0.1-1.6-0.4 c-0.4-0.2-0.8-0.5-1-0.9c-0.3-0.3-0.5-0.7-0.6-1.1C503.9,452.8,503.8,452.5,503.8,452.1"></path> <path class="st5" d="M556.4,429.3v-5.1H549v3.9c0,0.8,0.4,1.6,1.2,2.2l11,5.7c0.8,0.4,1.4,1,1.9,1.9c0.5,0.8,0.7,1.7,0.7,2.8v7.4 c0,0.7-0.2,1.4-0.6,1.9c-0.5,0.5-0.9,0.9-1.4,1.2l-8.8,5c-0.5,0.2-1,0.4-1.5,0.4c-0.7,0-1.2-0.1-1.6-0.4l-7.1-4.7 c-0.5-0.3-0.8-0.7-1.1-1.2c-0.3-0.5-0.4-1-0.4-1.6v-8.3h6.8v7.3l3.5,2.3l5.5-3.1v-3.7c0-0.6-0.1-1.1-0.4-1.6 c-0.3-0.5-0.7-0.9-1.2-1.2l-10.5-5.3c-1-0.5-1.7-1.2-2.1-2c-0.4-0.9-0.5-1.7-0.5-2.6v-8.8c0-0.3,0.1-0.7,0.2-1 c0.1-0.4,0.3-0.8,0.6-1.1c0.3-0.3,0.6-0.6,1.1-0.9c0.4-0.2,0.9-0.4,1.6-0.4h14.2c0.6,0,1.2,0.1,1.6,0.4c0.4,0.2,0.8,0.5,1.1,0.9 c0.3,0.3,0.5,0.7,0.6,1.1c0.1,0.4,0.2,0.7,0.2,1v7.8H556.4z"></path> <polygon class="st5" points="577.8,455.5 577.8,424.4 570.2,424.4 570.2,418.2 592.2,418.2 592.2,424.4 584.6,424.4 584.6,455.5 "></polygon> <path class="st5" d="M615,455.5v-13.3h-9.6v13.3h-6.8v-29.9c0-0.7,0.2-1.4,0.6-1.9c0.5-0.5,0.9-0.9,1.4-1.2l9.4-5 c0.5-0.2,1-0.4,1.5-0.4c0.7,0,1.2,0.1,1.6,0.4l7.1,4.7c0.5,0.3,0.8,0.7,1.1,1.2c0.3,0.5,0.4,1,0.4,1.6v30.5H615z M615,426.4 l-3.5-2.3l-6.1,3.1v8.9h9.6V426.4z"></path> <path class="st5" d="M644.8,429.3v-5.1h-7.3v23.4l3.5,2.3l7.5-4.2l3.2,5l-9.3,5.4c-0.5,0.2-1,0.4-1.5,0.4c-0.7,0-1.2-0.1-1.6-0.4 l-7.1-4.7c-0.5-0.3-0.8-0.7-1.1-1.2c-0.3-0.5-0.4-1-0.4-1.6v-27c0-0.3,0.1-0.7,0.2-1c0.1-0.4,0.3-0.8,0.6-1.1 c0.3-0.3,0.6-0.6,1-0.9c0.4-0.2,0.9-0.4,1.6-0.4h17.2l-0.5,11.2H644.8z"></path> <path class="st5" d="M675.8,455.5l-0.4-14.3l-6.5-4.7l-2.3,2.8v16.1h-6.8v-37.4h6.8v12.6l8.5-11.4c0.7-0.8,1.5-1.2,2.6-1.2h4.5 l-0.1,6.2h-3.4l-5.6,7.4l7.2,4.5c0.7,0.5,1.2,1.1,1.4,1.7c0.2,0.6,0.4,1.3,0.4,2l0.4,15.5H675.8z"></path> <polygon class="st6" points="335.8,376.9 302.5,444.2 328,444.2 354.2,391.4 385.9,455.5 344.8,455.5 350.4,444.2 369.1,444.2 354.2,414 333.6,455.5 285.7,455.5 335.8,354.2 348.6,380 343,391.4 "></polygon> </g> <g> <polygon class="st7" points="448,557.1 463.3,557.1 430.2,600.5 449.1,625.1 443.6,625.1 424.9,600.5 454.9,560.9 450.4,560.9 396.7,631.4 381.7,631.5 410.1,593.8 382.3,557.1 387.7,557.1 415.6,593.7 390,627.6 394.3,627.6 "></polygon> <path class="st7" d="M192.2,620.3c-0.8,1.7-2.1,4.3-2.4,4.8c-0.5,0.8-1.7,1.8-4.1,1.8h-16.9v-63.3c0.1-1,1.1-1.9,2.3-1.9h19.8 l-2.5,4.8c-0.4,0.8-1.6,1.9-4,1.9h-6.1c-1.1,0-1.8,0.7-1.8,1.6v19.4h11.4c-0.8,1.7-2.1,4.4-2.4,4.9c-0.5,0.8-1.6,1.8-4,1.8h-3.2 c-1,0-1.8,0.7-1.8,1.6v22.6H192.2z"></path> <path class="st7" d="M235.5,561.7c5.2,0,9.3,3.6,9.4,8.2v48.8c-0.1,4.6-4.2,8.2-9.4,8.2h-14.7v-65.2H235.5z M237.4,571.7 c0-2.4-1.9-3.4-4-3.4h-5v51.9h5c2.1,0,4-0.9,4-3.4V571.7z"></path> <path class="st7" d="M300.1,579.5c0,2.2-1.1,3.2-2.1,3.6c-0.5,0.3-3.5,1.5-5.5,2.2v-14.9c0-2-1.8-3.5-4-3.5c-2.2,0-4,1.6-4,3.5 v47.7c0,2,1.8,3.5,4,3.5c2.2,0,4-1.6,4-3.5v-19.5h-0.3c-1.7,0-2.8-2.1-2.8-2.1l-2.5-4.7h9.5c2.3,0,3.7,1.1,3.7,3.6v23.8 c0,4.5-4.1,8.1-9.2,8.3h-4.7c-5.2,0-9.4-3.7-9.4-8.3v-49.9c0-4.6,4.2-8.3,9.4-8.3h4.7c5.1,0.2,9.2,3.8,9.2,8.3V579.5z"></path> <path class="st7" d="M359,620.3c-0.8,1.7-2.1,4.3-2.4,4.8c-0.5,0.8-1.7,1.8-4.1,1.8h-16.9v-63.3c0.1-1,1.1-1.9,2.3-1.9h19.8 l-2.5,4.8c-0.4,0.8-1.6,1.9-4,1.9h-6.1c-1.1,0-1.8,0.7-1.8,1.6v19.4h11.4c-0.8,1.7-2.1,4.4-2.4,4.9c-0.5,0.8-1.6,1.8-4,1.8h-3.2 c-1,0-1.8,0.7-1.8,1.6v22.6H359z"></path> <polygon class="st8" points="422.8,577.2 438,557 443.4,557 417.8,590.7 391.7,557 407.3,557 420.5,574.2 417.8,577.8 404.8,560.8 400,560.8 417.8,583.7 422.7,577.4 "></polygon> <polygon class="st8" points="437.7,597.2 438.1,597.7 463.9,631.4 438.6,631.4 422.5,610.7 406.6,631.4 401.1,631.4 422.4,603.7 441.1,627.6 455.5,627.6 434.9,600.8 "></polygon> <path class="st8" d="M511.8,561.5c-0.7,1.7-2.1,4.3-2.4,4.9c-0.5,0.8-1.6,1.9-4,1.9h-8.5c-1,0-1.8,0.7-1.8,1.6v20.4h13.6l-2.6,4.9 c-0.5,0.8-1.6,1.9-4,1.9H497c-1.1,0-1.9,0.7-1.9,1.6v26.5c0,1.1-1.1,2-2.2,2h-5.3v-63.5c0-1,1-2,2.2-2H511.8z"></path> <path class="st8" d="M555.3,560.9c5.1,0.2,9.3,3.8,9.3,8.3v50.2c-0.1,4.5-4.1,8-9.3,8.2h-5.8c-5.2,0-9.5-3.7-9.6-8.2v-50.2 c0-4.6,4.3-8.3,9.6-8.3H555.3z M552.8,621.8c2.2,0,4-1.6,4-3.6v-47.7c0-2.1-1.8-3.6-4-3.6h-1.2c-2.2,0.1-4,1.7-4,3.6v47.7 c0,2,1.8,3.6,4,3.6H552.8z"></path> <path class="st8" d="M620.3,619.3c0,4.5-4.1,7.9-9.1,8v0.1h-5.8c-5.2,0-9.5-3.5-9.5-8v-55.9c0.1-1,1.1-1.9,2.2-1.9h5.4v56.6 c0,2,1.7,3.6,3.9,3.6h1.2c2.2,0,4-1.6,4-3.6v-56.6h7.7V619.3z"></path> <path class="st8" d="M676.1,627h-3.5c-4.1,0-4.8-2.9-5.1-4.2l-8.2-32.4V627h-7.7v-65.5h3.5c4.3,0,5,1.8,5.4,3.6l7.9,34v-37.7h7.7 V627z"></path> <path class="st8" d="M722.4,561.5c5.2,0,9.4,3.6,9.5,8.2v49c-0.1,4.6-4.3,8.2-9.5,8.2h-14.8v-65.5H722.4z M724.3,571.6 c0-2.4-1.9-3.4-4-3.4h-5v52.1h5c2.1,0,4-0.9,4-3.5V571.6z"></path> <path class="st8" d="M832.5,599.8V627h-5.4c-1.2,0-2.1-0.8-2.2-2v-25.3l-9.1-38.3h5.6c0.2,0,2.1,0.1,2.4,2.2l4.9,24.8l4.9-24.8 c0.3-2.2,2.2-2.2,2.4-2.2h5.6L832.5,599.8z"></path> <path class="st8" d="M779.4,627v-23.9c0-3.2-1.9-4.2-3.9-4.2h-4V627h-7.7v-65.5h13.9c5.1,0,9.4,3.6,9.4,8.2V590 c0,1.9-2.8,5.1-5.9,5.8c3,1.3,5.9,4.2,5.9,6.2c0,7,0,25.1,0,25.1H779.4z M775.4,592.5c2,0,3.9-0.7,3.9-3.7v-17.6 c0-2.4-1.9-3.4-3.9-3.4h-4v24.7H775.4z"></path> <path class="st9" d="M852.3,561.4h-6.4v1.1h2.4v6.4h1.5v-6.4h2.4V561.4z M856,561.4h-2.1v7.6h1.4v-6.2l2.4,6.2h0.8l2.3-6.2v6.2h1.4 v-7.6h-2.1l-2,5.4L856,561.4z"></path> </g> <rect x="1132.1" y="-24.8" class="st10" width="75.4" height="75.4"></rect> </svg> 