<?xml version="1.0" encoding="UTF-8" standalone="no"?>
<!-- Created with Inkscape (http://www.inkscape.org/) -->

<svg
   version="1.1"
   id="svg1"
   width="2545.5371"
   height="1175.4468"
   viewBox="0 0 2545.5371 1175.4468"
   sodipodi:docname="openbao-logo-w2-bg-t-v2.svg"
   inkscape:version="1.3.2 (091e20ef0f, 2023-11-25, custom)"
   xmlns:inkscape="http://www.inkscape.org/namespaces/inkscape"
   xmlns:sodipodi="http://sodipodi.sourceforge.net/DTD/sodipodi-0.dtd"
   xmlns="http://www.w3.org/2000/svg"
   xmlns:svg="http://www.w3.org/2000/svg">
  <sodipodi:namedview
     id="namedview1"
     pagecolor="#ffffff"
     bordercolor="#000000"
     borderopacity="0.25"
     inkscape:showpageshadow="2"
     inkscape:pageopacity="0.0"
     inkscape:pagecheckerboard="0"
     inkscape:deskcolor="#d1d1d1"
     inkscape:zoom="0.43684297"
     inkscape:cx="1272.7686"
     inkscape:cy="588.31208"
     inkscape:window-width="1920"
     inkscape:window-height="1022"
     inkscape:window-x="0"
     inkscape:window-y="0"
     inkscape:window-maximized="1"
     inkscape:current-layer="svg1" />
  <defs
     id="defs1" />
  <g
     id="g1"
     transform="translate(-79.647249,-86.822308)">
    <path
       style="fill:#ffffff;stroke:none;fill-opacity:1"
       d="m 850.0619,88.586453 c -45.53727,6.60539 -90.20207,11.10034 -134.66667,24.395097 -132.74044,39.68888 -255.11235,128.52189 -324.78394,249.72216 -24.101,41.92594 -44.76742,85.76602 -59.19756,131.99999 -4.49029,14.3868 -8.78922,29.15747 -11.46913,44 -1.36595,7.56526 -1.53266,18.91275 -6.49384,25.12963 -8.64193,10.82927 -33.63717,16.83504 -46.05554,23.19751 -29.96739,15.3536 -59.61013,34.21151 -85.33334,56.02474 -69.58907,59.01122 -124.356144,143.17846 -93.703718,236.98143 7.10629,21.74674 19.500718,42.74495 32.617288,61.33333 17.67303,25.04569 39.92811,45.71087 63.7531,64.76546 72.20136,57.7443 159.87484,93.8686 246.66667,123.2345 88.47046,29.9338 178.68084,54.6074 270.66668,71.2161 406.8331,73.4561 825.223,85.9213 1233.3334,12.2345 194.4666,-35.1121 392.344,-81.957 558.6666,-193.6728 59.9297,-40.25369 123.0372,-103.3777 130.4877,-179.11109 3.0643,-31.14795 -5.3085,-63.65348 -17.71,-91.99999 -32.8996,-75.19897 -112.6479,-129.61417 -183.4443,-165.01236 -22.536,-11.26799 -45.6626,-21.42904 -69.3334,-30.08643 -7.8769,-2.88094 -24.6801,-6.19987 -29.6604,-13.11108 -7.8049,-10.83097 -9.0243,-32.24194 -13.0248,-45.12345 -9.5216,-30.65975 -20.5983,-60.56706 -34.9814,-89.33333 -52.2688,-104.53759 -138.3426,-192.16942 -241,-247.61725 -165.8173,-89.562087 -370.2024,-90.980867 -540.0001,-12.56796 -49.0151,22.63534 -97.046,54.7889 -136,92.20988 -11.4016,10.95296 -22.5753,21.79467 -33.4135,33.30867 -2.618,2.78125 -8.288,10.63298 -12.7037,9.97534 -3.6315,-0.54077 -7.4577,-6.21419 -9.8828,-8.64201 l -22.6666,-22.66666 c -24.7647,-24.76465 -51.9029,-46.71818 -81.3334,-65.75927 -74.9795,-48.51082 -161.9005,-80.13948 -250.66663,-90.413567 -31.78906,-3.67936 -66.66618,-9.25293 -98.66667,-4.61109 m 86.66667,100.783927 c 9.6871,8.22811 21.08057,14.37199 30.66667,22.85189 22.56857,19.96419 38.99856,46.62923 50.09876,74.48144 4.9743,12.48128 10.4299,26.65006 12.2222,40 2.5902,19.29345 -0.9695,34.15706 15.037,49.15429 33.4905,31.37883 88.4369,5.28613 83.7963,-41.15429 -2.6748,-26.76839 -15.1023,-53.55249 -29.2098,-76 -5.3139,-8.45516 -22.1459,-23.92529 -21.2778,-33.33333 54.2706,23.96875 105.4093,49.4257 148,92 10.4894,10.48535 30.1879,24.29972 35.1543,38.66666 3.3754,9.76457 -15.4223,33.6936 -20.2654,42.66666 -7.3546,13.62647 -14.0914,27.49146 -21.0124,41.33333 -2.7212,5.44263 -4.9747,12.955 -10.0617,16.69751 -6.0635,4.46094 -20.318,4.78483 -27.8148,6.31486 -19.2956,3.93807 -38.1057,10.09448 -57.3333,14.32097 -27.2211,-45.54305 -80.0744,-66.64762 -127.99999,-38.28394 -24.03536,14.22477 -56.7008,52.32316 -21.33337,73.5494 18.80517,11.28613 32.91156,-2.38534 50.66666,0.73453 -6.201,9.08326 -16.3241,14.08415 -25.3333,20 -16.37763,10.75415 -32.42263,21.23706 -48.00003,33.16667 -39.05395,29.90861 -72.2111,66.59122 -103.6543,104.16666 -13.44287,16.06461 -26.16357,34.14095 -37.10498,51.99999 -3.59367,5.86573 -7.13664,18.13721 -13.93823,20.69759 -15.52084,5.84253 -40.75407,0.15609 -57.30249,0.66049 -46.95215,1.4309 -94.29652,-0.0247 -141.33334,-0.0247 -62.15621,0 -142.73959,16.76302 -180.75928,-45.33333 -24.18014,-39.49272 -19.01022,-85.94853 -11.56173,-129.33337 18.75089,-109.21728 79.22249,-210.23859 165.65434,-279.19749 30.43864,-24.28524 77.01241,-57.95744 117.33334,-60.80249 -3.19841,10.98983 -12.646,20.66561 -18.30249,30.66667 -13.87012,24.52335 -27.50358,53.73689 -25.61727,82.66666 3.22933,49.52677 64.25627,59.33618 92.64811,25.15429 12.62167,-15.19563 8.08244,-43.53865 13.5433,-62.48762 13.99365,-48.55754 39.46679,-88.34367 83.06169,-114.66666 5.6713,11.02832 2.66666,27.79125 2.66666,39.99999 v 90.66667 c 0,13.76993 -2.80452,30.38883 4.58024,42.66666 20.01905,33.28344 82.5573,32.99943 90.84571,-10.66667 2.40373,-12.66365 0.57405,-27.12866 0.57405,-39.99999 v -80 c 0.0211,-10.92025 -4.5039,-35.63444 2.66667,-44 m 769.33333,1.33334 c 0,40.07869 -1.3333,79.97371 -1.3333,119.99999 0,14.64152 -2.4085,39.38785 5.4445,52 20.8042,33.41186 73.8603,33.68066 91,-4 6.4518,-14.18409 3.5555,-32.81641 3.5555,-48 0,-23.64347 -1.3333,-47.03849 -1.3333,-70.66666 0,-14.54012 2.236,-31.19173 -1.3334,-45.33333 l 1.3334,-1.33334 c 47.5496,15.9362 74.9573,73.80485 86.1728,118.66666 6.0952,24.3811 0.2583,50.2369 23.1605,67.03084 27.3393,20.04769 70.1416,8.88176 83.4259,-23.03084 7.7526,-18.62378 2.2774,-38.14119 -5.3087,-56 -6.4899,-15.27815 -14.3104,-30.69506 -24.3148,-43.99999 -5.9233,-7.87745 -16.9232,-17.18482 -19.1357,-26.66667 39.8849,8.03695 78.6412,32.14144 110.6666,56.16048 87.05,65.28751 151.1892,159.09187 167.0062,267.8395 7.655,52.63053 12.8535,123.98014 -28.4197,165.25308 -27.7749,27.77482 -66.57,24.08024 -102.5865,24.08024 h -180 c -27.3214,0 -58.5018,4.22307 -85.3333,0 -0.3293,-6.27408 -6.5602,-10.81819 -10.0248,-16 -9.4,-14.0594 -19.0262,-27.99544 -29.4257,-41.33333 -34.1423,-43.78873 -72.4364,-84.40697 -116.5495,-118.37654 -17.0165,-13.10359 -34.5565,-25.29825 -52,-37.80867 -5.667,-4.06437 -16.6084,-8.76929 -20.1174,-14.88265 -4.1015,-7.14591 7.6996,-5.28336 10.784,-4.27783 7.3034,2.38086 13.6978,6.82438 21.3334,8.12345 21.1463,3.59774 59.8512,-8.64705 54.2407,-36.77774 -2.5164,-12.61752 -12.9445,-23.83382 -22.2469,-32 -30.0397,-26.37044 -76.5724,-31.81193 -110.6605,-9.99382 -11.0532,7.07463 -21.8104,15.77116 -30.0926,25.99382 -3.2936,4.06526 -6.5664,13.68115 -12.5988,13.7469 -7.0391,0.0767 -15.9917,-4.87378 -22.6419,-7.08024 -13.9177,-4.61767 -28.314,-8.70491 -42.6667,-11.72835 -41.4401,-8.72949 -82.4971,-9.25106 -124,-14.93831 5.2524,-14.94531 15.2606,-30.37891 23.4321,-44 35.2526,-58.76228 82.3148,-107.03246 140.5679,-143.21606 18.5423,-11.51741 39.0228,-20.5887 60,-26.66666 6.5978,-1.9117 13.1449,-6.1141 20,-4.78394 -23.9129,35.49626 -53.708,70.17367 -51.9752,116 1.7817,47.12353 59.047,56.94482 89.3085,31.44441 19.4468,-16.38712 13.8222,-48.22713 20.5495,-71.44441 13.2948,-45.88305 38.5739,-89.31193 82.1172,-111.99999 m 292,233.88271 c -27.3133,4.01473 -52.8318,16.81747 -69.4752,39.4506 -12.5383,17.05062 -14.9473,36.31307 4.1419,49.91357 14.6159,10.41333 31.9521,10.01229 48,3.79012 8.1426,-3.15706 16.2821,-8.85457 25.3333,-8.77775 8.0747,0.0685 15.4781,5.9397 22.6667,8.93213 10.9595,4.56218 22.7941,6.23552 34.6667,4.6049 30.9581,-4.25195 33.8562,-35.81705 19.0555,-57.12963 -18.5451,-26.70427 -50.8467,-45.71419 -84.3889,-40.78394 m -1354.66667,1.33334 c -27.68644,4.06958 -51.55656,17.48665 -67.75309,40.78393 -12.41659,17.86019 -13.63774,36.65348 6.41975,49.22843 13.7636,8.62899 31.28362,6.27482 45.33334,-0.28402 6.60132,-3.0817 15.01115,-10.17659 22.66667,-9.642 7.04687,0.4921 13.77938,6.74764 20,9.642 9.36271,4.35629 20.4694,5.52027 30.66666,4.03703 31.3051,-4.55338 40.28272,-34.85359 23.03085,-58.31477 -17.587,-23.91691 -50.4515,-39.84741 -80.36418,-35.4506 m 619.99997,120.78392 c 4.5291,13.90739 1.0472,32.28687 0.4445,46.74691 -1.0168,24.39502 0.4285,48.76587 -0.01,73.25309 -0.2431,13.69531 -2.7829,33.95874 3.1542,46.66666 17.1822,36.77653 73.7146,35.72843 90.9446,0 6.7086,-13.91113 2.7962,-35.48811 2.7962,-50.66666 0,-37.80379 -3.0376,-77.12109 1.3333,-114.66666 13.2718,2.04402 26.8141,14.83178 36,24 26.9092,26.85734 44.6978,60.65763 54.4753,97.33332 5.9957,22.49056 2.1281,43.88363 22.9383,60.14193 32.2306,25.18066 90.7676,2.66609 83.3642,-42.80859 -3.7446,-23.00114 -13.7374,-44.7098 -26.568,-64 -5.3003,-7.96891 -19.0996,-19.37378 -16.8765,-29.33333 27.903,13.51627 57.0114,23.99113 84,39.56787 40.6182,23.44311 78.7253,59.8177 105.8829,97.76545 26.0691,36.42692 47.4244,72.78849 63.7098,114.66666 18.8336,48.43115 28.3234,101.57682 25.1481,153.33327 -2.161,35.22199 -14.3314,69.70129 -45.4074,89.75929 -18.8086,12.14 -41.1729,11.5741 -62.6667,11.5741 h -89.3333 -368 -242.66669 c -32.86483,0 -77.55022,7.4096 -106.66667,-10.5186 -56.38331,-34.7175 -53.5835,-119.69847 -41.60499,-176.14806 23.77116,-112.02311 87.69125,-214.97574 182.93835,-279.98143 25.7998,-17.60823 54.7767,-26.83032 82.6666,-40.01855 0.903,8.64339 -10.4808,19.13175 -14.8703,26.66666 -11.1101,19.07121 -20.992,37.99715 -24.5741,60 -8.2298,50.55151 47.2123,76.16105 84.7716,46.03703 19.968,-16.01522 14.4084,-40.4563 21.6852,-62.03703 15.1223,-44.84814 44.8737,-100.84879 92.9876,-117.33333 m 500.0001,104 1.3333,1.33333 -1.3333,-1.33333 m 5.3333,6.66667 1.3333,1.33333 -1.3333,-1.33333 m 58.6667,79.99999 -1.3334,1.33333 1.3334,-1.33333 m -751.9962,51.21606 c -26.8002,3.93921 -51.4642,17.65503 -66.5802,40.78393 -11.25069,17.21452 -11.61519,37.93636 6.5802,50.41358 12.1805,8.35253 29.0533,8.93115 42.6667,3.67903 7.7042,-2.97233 16.7966,-9.57959 25.3333,-9.2963 16.0511,0.53255 27.5593,12.4624 45.3334,9.5 34.351,-5.72526 43.1652,-34.45508 23.8086,-60.96297 -16.0158,-21.93278 -49.7924,-38.13721 -77.142,-34.11727 m 416,1.33944 c -24.1106,3.93473 -48.892,19.79337 -61.5864,40.77783 -7.8021,12.8973 -9.862,28.86393 2.9445,39.37036 14.0287,11.50919 31.4876,16.60685 49.3086,11.27156 7.5661,-2.26513 16.537,-9.83626 24.5495,-9.2469 16.5128,1.21468 27.8773,14.60799 46.1172,11.56795 34.7982,-5.79973 38.0885,-38.43058 19.3704,-62.2963 -17.9927,-22.94084 -51.924,-36.14112 -80.7038,-31.4445 z"
       id="path1" />
  </g>
</svg>
