<?xml version="1.0" encoding="UTF-8" standalone="no"?>
<!-- Created with Inkscape (http://www.inkscape.org/) -->

<svg
   version="1.1"
   id="svg1"
   width="2634.4065"
   height="1550.2611"
   viewBox="0 0 2634.4064 1550.2611"
   sodipodi:docname="openbao-single-color.svg"
   inkscape:version="1.3.2 (091e20ef0f, 2023-11-25, custom)"
   xmlns:inkscape="http://www.inkscape.org/namespaces/inkscape"
   xmlns:sodipodi="http://sodipodi.sourceforge.net/DTD/sodipodi-0.dtd"
   xmlns="http://www.w3.org/2000/svg"
   xmlns:svg="http://www.w3.org/2000/svg">
  <sodipodi:namedview
     id="namedview1"
     pagecolor="#ffffff"
     bordercolor="#000000"
     borderopacity="0.25"
     inkscape:showpageshadow="2"
     inkscape:pageopacity="0.0"
     inkscape:pagecheckerboard="0"
     inkscape:deskcolor="#d1d1d1"
     inkscape:zoom="1.3139745"
     inkscape:cx="1794.5554"
     inkscape:cy="1263.3427"
     inkscape:window-width="1920"
     inkscape:window-height="1022"
     inkscape:window-x="0"
     inkscape:window-y="0"
     inkscape:window-maximized="1"
     inkscape:current-layer="svg1" />
  <defs
     id="defs1" />
  <g
     id="g1"
     transform="translate(-44.098409,-98.813769)">
    <g
       id="g6">
      <path
         style="fill:#fdfcd1"
         d="m 631.98108,1206.3021 c -45.48068,-15.545 -83.86028,-68.0874 -97.18596,-133.0496 -3.54977,-17.3049 -6.7951,-51.6472 -6.7951,-71.9059 0,-42.18597 9.40797,-105.77099 23.2887,-157.3998 24.30651,-90.40705 70.52763,-182.59077 127.99803,-255.28011 4.05857,-5.13333 10.22938,-12.92942 13.71291,-17.32465 29.09141,-36.7051 77.72084,-83.12713 122.4591,-116.90042 24.13904,-18.22276 55.83788,-38.38494 87.88036,-55.89666 24.46098,-13.36832 70.42463,-34.03312 77.38652,-34.79222 6.01289,-0.65563 5.54797,2.97176 -1.7749,13.84807 -6.57734,9.76903 -16.49176,28.1422 -23.23893,43.06588 -21.78805,48.19169 -26.93191,97.60736 -13.59313,130.58541 10.04235,24.82814 35.72061,45.08625 64.43332,50.83276 36.0012,7.20523 72.1078,-5.97813 93.2623,-34.05229 9.0899,-12.06323 13.9067,-23.32261 16.9245,-39.56127 10.0641,-54.1547 18.902,-83.6397 35.1087,-117.12892 18.1458,-37.49619 36.2873,-63.30251 62.3837,-88.74113 22.5073,-21.93994 39.3052,-34.2731 61.9584,-45.4904 7.1577,-3.5443 13.1932,-6.44425 13.4122,-6.44435 0.219,-10e-5 0.3982,60.7499 0.3982,135 v 135.00019 l 3.1159,9.02164 c 6.6955,19.38558 20.7164,34.63557 40.711,44.27959 23.7118,11.43696 51.83,13.32534 76.8398,5.16048 7.8253,-2.5547 24.3905,-11.49086 30.9897,-16.71755 6.9443,-5.5 14.8862,-16.45698 20.4163,-28.16717 9.2096,-19.50194 8.8237,-12.94168 9.0463,-153.76647 0.1441,-91.13355 0.6147,-127.14386 1.6615,-127.14386 4.638,0 34.1912,20.34204 52.496,36.13403 36.1574,31.19383 72.6912,87.50718 89.8743,138.53264 7.823,23.23045 10.5605,34.24491 15.4841,62.30134 5.5166,31.43532 9.747,42.44191 22.3478,58.14321 11.6365,14.49985 28.059,25.35263 47.684,31.51196 14.3436,4.50175 37.9579,5.19149 52.4876,1.53308 42.6468,-10.73799 68.0828,-45.12686 68.1638,-92.15625 0.044,-25.55531 -8.0056,-61.87544 -19.7521,-89.12167 -5.1488,-11.94277 -18.7919,-36.67178 -28.3319,-51.35354 -2.8307,-4.35638 -4.791,-8.49625 -4.3563,-9.19971 4.5407,-7.34692 90.2108,32.95407 138.9081,65.34522 38.6363,25.69912 71.6352,53.00531 108.2977,89.61508 49.8278,49.75627 86.8319,97.81361 122.2982,158.82912 36.1497,62.19132 58.8367,118.79265 78.3902,195.57433 14.1351,55.50465 18.3685,86.29186 18.377,133.64451 0.01,50.5131 -5.6149,83.1791 -20.4302,118.6667 -16.0098,38.3489 -38.784,63.6372 -73.3854,81.4869 l -11.3333,5.8464 -744.6667,0.302 -744.66671,0.302 z m 287.963,-364.96746 c 42.36278,-10.67326 67.14685,-10.75185 107.38932,-0.34053 14.7836,3.82475 21.3015,4.84771 31.3333,4.91763 13.9407,0.0972 21.3333,-0.63243 21.3333,-2.10546 0,-1.05119 5.3956,-3.16091 7,-2.73707 0.55,0.14529 1,-0.43584 1,-1.29139 0,-0.85556 0.3617,-1.19384 0.8038,-0.75175 0.4421,0.44209 2.2905,-0.80791 4.1076,-2.77778 1.8171,-1.96987 2.8572,-2.68158 2.3114,-1.58158 -0.5457,1.1 0.742,0.2 2.8617,-2 2.1196,-2.2 3.8827,-4.3 3.9178,-4.66667 0.035,-0.36667 1.9795,-3.27977 4.3208,-6.47357 7.8929,-10.76671 10.3547,-19.13677 10.2532,-34.85977 -0.073,-11.34804 -0.6617,-15.38912 -3.1061,-21.33333 -5.179,-12.59377 -16.6601,-28.22882 -30.4444,-41.45938 -14.9134,-14.31416 -27.5267,-23.08728 -45.2931,-31.50331 -50.27398,-23.81502 -114.50147,-15.593 -163.13835,20.88398 -10.65416,7.99047 -30.04452,27.64514 -35.59353,36.07871 -2.6538,4.03333 -5.45938,7.75821 -6.23462,8.2775 -0.77524,0.51929 -1.421,1.71929 -1.43502,2.66666 -0.014,0.94738 -1.47187,5.32251 -3.23965,9.72251 -2.55078,6.34886 -3.27328,10.79613 -3.50061,21.54768 -0.15754,7.45123 -0.68611,14.19436 -1.17459,14.98473 -0.51666,0.83597 -0.1491,1.15345 0.87874,0.75903 2.2999,-0.88256 5.5102,6.93807 3.23149,7.87223 -0.83959,0.34419 -0.51697,0.67317 0.71695,0.73107 1.23391,0.0579 2.63947,1.3529 3.12345,2.8778 0.48399,1.5249 4.71641,6.83936 9.40538,11.80993 13.45382,14.26175 28.48523,19.47617 49.17174,17.05776 5.10257,-0.59653 18.60257,-3.43406 30,-6.30563 z m 909.78352,5.89658 c 10.2296,-2.65075 17.0114,-6.09882 23.4676,-11.93163 2.7913,-2.52173 5.5142,-4.14574 6.051,-3.60892 0.5369,0.53682 0.8062,0.37604 0.5985,-0.3573 -0.2076,-0.73333 1.5444,-4.30403 3.8935,-7.93489 9.5942,-14.82957 12.4117,-28.60149 8.9941,-43.96307 -6.8347,-30.72053 -35.616,-62.58638 -74.5361,-82.52419 -4.8478,-2.48343 -8.4852,-4.8444 -8.083,-5.24659 0.4022,-0.4022 -0.059,-0.65412 -1.0243,-0.55984 -0.9655,0.0943 -8.3929,-2.03289 -16.5052,-4.72705 -29.3347,-9.74225 -54.4314,-10.19426 -88.8345,-1.59998 -21.6347,5.40461 -40.4228,14.69946 -59.0825,29.22934 -11.0003,8.56567 -23.5119,20.74509 -29.0806,28.30837 -1.7476,2.37348 -3.6194,3.87348 -4.1595,3.33333 -0.5402,-0.54015 -0.7858,-0.3821 -0.5459,0.35124 0.4569,1.39673 -5.2116,11.40648 -7.2575,12.81573 -0.6513,0.44866 -1.116,1.34866 -1.0326,2 0.28,2.18608 -3.0516,13.72331 -3.8256,13.24781 -0.4207,-0.25851 -0.9277,3.86973 -1.1265,9.17387 -0.1989,5.30414 -0.9225,11.5995 -1.608,13.98968 -1.5054,5.24924 1.8589,15.35648 4.7433,14.24965 1.1756,-0.45114 1.484,0.0375 0.9318,1.47656 -0.5249,1.36764 -0.2923,1.82137 0.6385,1.24606 1.4003,-0.86543 3.8551,3.88584 3.2204,6.23308 -0.1634,0.60451 0.3177,0.7191 1.0692,0.25464 0.7515,-0.46445 1.3663,-0.31509 1.3663,0.33191 0,1.82198 13.4462,14.68018 18.6667,17.8504 16.8774,10.24903 32.3282,10.7979 72,2.55771 25.6096,-5.31933 28.7208,-5.68067 49.3334,-5.72964 22.4381,-0.0533 29.1569,0.83637 53.9921,7.14941 26.6529,6.77509 35.4064,7.57907 47.7354,4.38431 z m -252.8453,-43.47888 c -0.4149,-1.58641 -0.1662,-3.82966 0.5525,-4.985 1.1,-1.76807 1.2534,-1.67846 0.9693,0.56603 -0.1856,1.46667 0.1073,3.37521 0.651,4.2412 0.5436,0.866 0.4469,1.90925 -0.2151,2.31834 -0.6619,0.40909 -1.5429,-0.55417 -1.9577,-2.14057 z"
         id="path9"
         sodipodi:nodetypes="sssssssssssssssssssscsssssssssssssssscsssscsscccssssssssssssscssssssssssssssssssssssssssssssssssssssssssssssssssssss" />
      <path
         style="fill:#86d6be"
         d="m 1318,1527.1147 c -452.47539,-5.5374 -865.84544,-89.963 -1056.76978,-215.8319 -21.57093,-14.2209 -34.57499,-24.586 -51.70608,-41.2131 -22.53914,-21.8761 -35.90903,-41.9616 -40.83743,-61.3498 -7.23909,-28.4784 5.97394,-58.2849 40.83743,-92.1228 31.44206,-30.5171 68.89923,-55.1281 125.8092,-82.6621 31.15025,-15.071 29.29918,-14.4368 29.4753,-10.0985 0.19966,4.9182 1.59917,19.7013 2.54001,26.8302 1.63763,12.4086 1.86774,14.0988 2.45052,18 0.99139,6.6364 2.29731,14.4682 3.00141,18 0.3655,1.8334 0.85753,4.8334 1.09339,6.6667 0.23587,1.8333 0.55621,3.3333 0.71189,3.3333 0.15567,0 0.49532,1.2 0.75477,2.6667 0.25946,1.4667 0.83492,4.4667 1.2788,6.6667 0.44389,2.2 0.81979,5.0381 0.83533,6.307 0.0156,1.2689 0.59988,2.6604 1.29851,3.0922 0.69863,0.4317 0.95616,1.2932 0.57229,1.9143 -0.38388,0.6212 -0.0404,2.8297 0.76331,4.9079 1.58194,4.0906 2.51801,7.5919 3.14894,11.7786 0.22103,1.4666 0.55345,2.8166 0.7387,3 0.18526,0.1833 0.48683,0.9333 0.67017,1.6666 0.18333,0.7334 0.48333,1.6334 0.66666,2 0.18334,0.3667 0.48334,1.2667 0.66667,2 0.18333,0.7334 0.48333,1.6334 0.66667,2 0.18333,0.3667 0.48333,1.2667 0.66666,2 0.18334,0.7334 0.47939,1.7834 0.6579,2.3334 0.17851,0.55 0.26709,1.4092 0.19686,1.9094 -0.0702,0.5002 0.86479,3.2002 2.07784,6 1.21305,2.7998 2.35325,5.8874 2.53378,6.8613 0.18053,0.974 0.76507,2.774 1.29898,4 0.53392,1.2261 1.11107,2.8704 1.28256,3.6541 0.91859,4.1976 20.65121,44.7981 22.83323,46.9801 0.98204,0.982 1.78552,2.3546 1.78552,3.0501 0,0.6956 1.63774,3.8027 3.63943,6.9048 2.00168,3.1021 4.25168,6.6044 5,7.7828 3.44828,5.4305 8.60379,12.7952 10.86973,15.5275 1.36997,1.652 3.99084,4.8967 5.82418,7.2104 8.67257,10.9453 22.61682,25.4557 32.73636,34.0656 3.62834,3.087 8.39697,7.1568 10.59697,9.0441 5.96199,5.1143 28.88711,20.1862 32.33334,21.2572 1.65,0.5127 3,1.5918 3,2.398 0,0.8061 0.39725,1.0684 0.88278,0.5829 0.48553,-0.4855 4.63302,1.2145 9.21665,3.7778 4.58362,2.5633 9.24021,4.6605 10.34798,4.6605 1.10777,0 3.81412,1.8 6.01412,4 2.2,2.2 4.59616,4 5.32479,4 0.72863,0 1.52479,0.5799 1.76923,1.2885 0.24445,0.7087 4.64445,2.8172 9.77778,4.6857 8.75796,3.1877 12.17605,4.1737 18.66667,5.3846 1.46666,0.2737 4.16666,0.854 6,1.2896 l 47.33333,4.0183 10,2.9813 c 76.52038,22.8132 241.86616,40.84 455.33335,49.6424 90.2254,3.7205 141.4196,4.5937 269.3333,4.5937 127.9138,0 179.1079,-0.8732 269.3334,-4.5937 213.4672,-8.8024 378.813,-26.8292 455.3333,-49.6424 l 10,-2.9813 -44,-0.7542 c -43.291,-0.7421 -42.9257,-0.7579 22.6667,-0.9785 70.9816,-0.2386 76.9281,-0.4611 91.3333,-3.4176 1.8334,-0.3763 5.2653,-0.9906 7.6265,-1.3651 2.3612,-0.3746 5.5112,-1.333 7,-2.1297 1.4888,-0.7968 2.7069,-1.1065 2.7069,-0.6882 0,0.4182 1.2389,0.097 2.7532,-0.713 1.5142,-0.8104 3.7642,-1.6782 5,-1.9285 1.2357,-0.2503 3.7468,-1.0365 5.5801,-1.7471 1.8333,-0.7106 3.7896,-1.3517 4.3473,-1.4247 1.5156,-0.1984 9.5523,-4.4276 10.3194,-5.4304 0.3666,-0.4794 5.7666,-3.422 12,-6.5391 6.2333,-3.1172 14.3333,-7.4244 18,-9.5716 3.6666,-2.1471 8.3166,-4.6524 10.3333,-5.5671 2.0167,-0.9147 3.6667,-2.1316 3.6667,-2.7042 0,-0.5725 0.9,-1.041 2,-1.041 1.1,0 2,-0.6 2,-1.3333 0,-0.7334 0.761,-1.3334 1.6911,-1.3334 1.5271,0 4.1031,-1.8818 19.5806,-14.304 6.8312,-5.4827 33.7983,-33.1969 40.8807,-42.0133 0.8172,-1.0172 4.0941,-5.712 7.282,-10.4328 3.1879,-4.7208 6.1641,-8.8832 6.6137,-9.2499 0.4496,-0.3666 2.2727,-3.3666 4.0513,-6.6666 1.7787,-3.3 3.617,-6.3 4.0853,-6.6667 0.4683,-0.3667 2.7431,-4.5667 5.0552,-9.3333 2.3121,-4.7667 4.7358,-9.5667 5.386,-10.6667 3.1671,-5.3578 8.0407,-16.7831 8.0407,-18.8498 0,-1.2794 0.5539,-2.6685 1.2308,-3.0868 0.6769,-0.4184 1.6533,-2.7038 2.1699,-5.0787 0.5165,-2.3749 1.5548,-5.818 2.3074,-7.6514 0.7526,-1.8333 1.5243,-3.9333 1.7149,-4.6666 0.1905,-0.7334 1.2717,-3.8834 2.4026,-7 1.1309,-3.1167 1.7093,-5.6667 1.2854,-5.6667 -0.424,0 -0.1537,-0.75 0.6004,-1.6667 0.7542,-0.9166 1.6922,-3.4666 2.0845,-5.6666 0.9841,-5.5189 2.623,-12.1247 4.7749,-19.2451 0.761,-2.5181 1.115,-4.847 0.7867,-5.1753 -0.3283,-0.3283 -0.062,-1.5961 0.5913,-2.8173 0.6536,-1.2212 1.5847,-5.1923 2.0692,-8.8247 0.4844,-3.6324 1.0986,-7.8043 1.3648,-9.271 0.5292,-2.9154 1.5294,-8.9164 2.6114,-15.6688 0.3818,-2.3821 0.9933,-7.0312 1.3589,-10.3312 0.3657,-3.3 1.0234,-9 1.4617,-12.6666 0.4383,-3.6667 0.9782,-8.4667 1.1997,-10.6667 0.256,-2.5414 1.0561,-3.8428 2.1942,-3.5688 3.3262,0.8008 32.7847,17.5759 48.4253,27.5759 22.8329,14.5984 38.9593,27.1402 56.1642,43.68 36.3876,34.981 49.8815,64.7203 42.5151,93.6994 -9.0383,35.5567 -50.0541,77.5896 -111.8109,114.5836 -175.5381,105.152 -502.0811,178.5733 -883.5024,198.6504 -71.563,3.7669 -174.3896,5.9719 -240.6667,5.1608 z"
         id="path8"
         sodipodi:nodetypes="sssssssssssssssssssssssssssssssssssscssssssssssssccssssscsssssssssssssssssssssssssssssssssssssssssssssssssss" />
      <path
         style="fill:#78c0ab"
         d="m 1262.6667,1416.5285 c -289.27475,-5.4558 -517.43492,-25.6233 -613.33335,-54.2138 l -31.0897,-7.0904 224.1009,0.5775 c 268.50495,0.6919 876.22705,-4.8279 1093.08155,-0.1809 l 189.7131,-1.2504 -24.6058,7.4403 c -86.3717,26.1169 -273.1859,44.4697 -534.5334,52.9085 -40.631,1.3119 -260.2457,2.6218 -303.3333,1.8091 z"
         id="path7"
         sodipodi:nodetypes="sscsscssss" />
      <path
         style="fill:#030a12"
         d="m 1277.3334,1648.5355 c -256.1027,-6.0378 -476.95876,-31.5338 -680.00005,-78.5 -142.90984,-33.0571 -277.3199,-81.6327 -365.51444,-132.0965 -106.11486,-60.7175 -167.7335,-129.894 -184.658606,-207.3081 -3.523017,-16.114 -3.523017,-58.4811 0,-74.595 14.840026,-67.8771 63.290256,-128.6849 146.173036,-183.45548 45.16714,-29.84734 86.77697,-51.22277 149.31943,-76.70702 l 28.65275,-11.67518 3.61117,-25.38567 C 389.83876,753.91375 420.88761,667.48902 477.71711,572.66669 514.79571,510.79955 554.5199,460.12802 607.95284,406.5401 682.07232,332.20566 761.11349,275.87777 864.11302,223.99012 948.26933,181.59505 1032.9017,151.83999 1135.0503,128.73392 1296.8576,92.133021 1479.056,90.977922 1644,125.50729 c 52.0614,10.89852 117.8196,30.01872 163.3334,47.49168 122.8012,47.14394 221.3682,105.1754 310.8784,183.03012 20.4871,17.81934 74.7683,72.15484 92.5571,92.64959 75.7101,87.22698 125.8374,175.90347 157.2284,278.14106 14.3992,46.89687 28.5439,117.55175 34.0401,170.03561 l 0.8576,8.18864 15.5525,7.00807 c 135.4477,61.03345 221.4702,136.50264 249.9856,219.31714 8.0986,23.52 9.5433,32.9006 9.5433,61.9642 0,29.0635 -1.4447,38.4442 -9.5433,61.9642 -13.0505,37.9012 -34.0856,69.1565 -70.0553,104.0929 -53.5967,52.0568 -126.2452,95.1009 -231.0444,136.8933 -63.2062,25.2057 -161.082,55.0342 -242,73.7517 -184.9454,42.7804 -383.9678,67.6109 -614.6667,76.6872 -33.9087,1.3341 -199.1776,2.6181 -233.3333,1.8128 z m 224,-123.1741 c 17.9666,-0.7722 48.8666,-2.3019 68.6666,-3.3992 323.8212,-17.9471 607.7088,-74.2533 793.5918,-157.401 93.6939,-41.9105 158.7802,-90.0395 182.8725,-135.2278 7.0443,-13.2125 9.9751,-23.7897 9.9751,-36 0,-24.2047 -14.057,-49.6986 -42.7219,-77.481 -7.1779,-6.9569 -17.8044,-16.4208 -23.6143,-21.0308 -18.1745,-14.421 -56.1396,-38.4328 -78.9018,-49.9031 l -6.7987,-3.426 -2.2897,19.5871 c -10.7386,91.8627 -34.6503,153.8789 -78.6749,204.0479 -24.6303,28.0679 -45.7677,44.1748 -85.6283,65.2495 -34.7298,18.3621 -53.032,23.5869 -89.8097,25.6384 -13.029,0.7267 -332.9959,1.1097 -784.6667,0.9392 l -762.66672,-0.2879 -13.18882,-3.0659 c -16.08174,-3.7385 -27.28113,-8.1648 -33.87798,-13.3896 -2.73359,-2.1651 -10.36186,-6.4977 -16.95169,-9.628 -33.87631,-16.0919 -64.78022,-40.7273 -91.0522,-72.5831 -16.81487,-20.3888 -39.41553,-61.0422 -50.12999,-90.1724 -14.22144,-38.6649 -21.64285,-74.2726 -29.62941,-142.161 -0.36665,-3.1167 -1.181,-5.6667 -1.80965,-5.6667 -2.14749,0 -38.61113,17.378 -55.00058,26.2124 -45.3826,24.4626 -73.79222,44.2388 -100.07711,69.6647 -28.63196,27.6963 -42.7219,53.2418 -42.7219,77.4563 0,24.2145 14.08994,49.76 42.7219,77.4563 15.19746,14.7008 26.77351,24.1385 44.38409,36.1853 174.97916,119.6974 546.16725,202.9742 973.33336,218.3693 21.6333,0.7797 45.9333,1.6134 54,1.8529 29.1171,0.8641 188.7459,-0.4639 220.6667,-1.8358 z m 640.8533,-322.0138 c 24.6934,-12.4951 40.6623,-26.7804 56.7128,-50.7332 25.3743,-37.8672 37.3415,-85.6089 37.4198,-149.281 0.059,-47.63293 -4.2264,-78.29576 -19.0053,-136.00003 -16.3322,-63.76893 -35.865,-115.91919 -62.1015,-165.80277 -23.0446,-43.8151 -58.2705,-97.02577 -87.0742,-131.53057 -46.9484,-56.24097 -97.8987,-103.43463 -152.1382,-140.92095 -54.2565,-37.49798 -145.429,-80.02871 -147.6935,-68.89693 -0.2441,1.20018 2.8203,7.20018 6.8097,13.33334 9.5435,14.67149 23.6619,41.79951 28.7028,55.1512 15.3587,40.68062 20.334,86.4208 12.1825,112 -9.1502,28.71316 -28.2379,48.66446 -55.0489,57.53946 -9.7518,3.22807 -12.9992,3.63374 -29.6193,3.70013 -21.0369,0.084 -29.7336,-1.6597 -45.3333,-9.08962 -23.5875,-11.23429 -40.2098,-29.84927 -47.7581,-53.4833 -1.1711,-3.66667 -3.9804,-16.86667 -6.2428,-29.33334 -5.3082,-29.24965 -6.8813,-35.91983 -12.785,-54.21053 -17.3505,-53.75436 -54.4166,-112.54655 -91.7408,-145.51399 -19.4218,-17.15473 -50.3734,-38.27549 -56.0912,-38.27549 -1.8642,0 -2.0706,13.02225 -2.0287,127.98148 0.052,143.39269 0.4829,136.39522 -9.6717,157.18028 -9.4935,19.43211 -24.6378,32.07904 -48.6668,40.64164 -11.1859,3.98602 -12.5587,4.16166 -32.3483,4.1386 -23.4418,-0.0273 -29.4226,-1.32756 -47.3073,-10.2849 -12.759,-6.39015 -26.4718,-19.37213 -32.0395,-30.33192 -8.448,-16.62965 -7.9841,-7.62168 -8.0113,-155.57216 -0.014,-74.20252 -0.4015,-135.29043 -0.862,-135.75093 -1.1976,-1.19759 -21.1298,9.02924 -34.4466,17.67391 -17.2742,11.21366 -25.9457,18.21212 -42.4696,34.27589 -37.6685,36.61946 -67.4484,87.62171 -84.8342,145.29065 -4.2887,14.22569 -8.5276,33.90662 -12.7989,59.42414 -1.8017,10.76365 -6.0798,24.3103 -9.6577,30.58113 -1.4913,2.61371 -5.8981,8.71025 -9.7929,13.54787 -15.0547,18.69879 -37.8422,29.81626 -64.474,31.4553 -17.3025,1.06488 -31.6085,-1.82327 -47.306,-9.55033 -35.67284,-17.55983 -50.19855,-44.68653 -48.21107,-90.03397 1.71497,-39.12973 17.87003,-85.28422 43.81257,-125.17108 9.78227,-15.04033 8.53315,-17.86863 -5.68871,-12.88058 -46.44738,16.29056 -121.0421,58.61913 -167.69188,95.1563 -61.91714,48.49492 -107.04266,96.50206 -155.19893,165.10962 -29.66795,42.2675 -60.60615,101.51784 -80.30089,153.78575 -9.93826,26.37518 -11.13185,29.94498 -17.92212,53.60157 -25.88344,90.17524 -32.96189,175.25253 -19.98009,240.14453 9.60822,48.0286 36.04129,94.4656 67.03647,117.7682 8.70169,6.542 26.05501,15.8199 34.8113,18.6118 4.30072,1.3712 149.41999,1.6527 749.51995,1.4539 l 744.1867,-0.2466 z M 869.56842,846.65987 c -16.11643,-3.4134 -31.27983,-15.64214 -39.10456,-31.53642 -4.99025,-10.13663 -6.52701,-24.87238 -3.82334,-36.66138 9.18503,-40.05013 59.97007,-82.42536 113.496,-94.70148 10.33261,-2.36978 16.73934,-2.87526 36.53018,-2.88216 21.6725,-0.008 25.255,0.32847 36.9411,3.46487 40.8673,10.96833 81.0796,43.09155 97.2802,77.71146 10.459,22.35022 5.518,49.59916 -12.2316,67.45683 -11.4784,11.54823 -19.0879,14.88652 -35.4632,15.5577 -12.3075,0.50444 -15.4032,0.0779 -35.7718,-4.92896 -41.58345,-10.22174 -66.38924,-10.07292 -108.66532,0.6519 -24.40385,6.1909 -39.28168,7.96569 -49.18766,5.86764 z m 933.76498,0.35544 c -2.2,-0.32184 -13.6,-2.97211 -25.3333,-5.88948 -19.2174,-4.77818 -23.5155,-5.37529 -43.3334,-6.01995 -23.5008,-0.76447 -32.9199,0.33311 -70,8.15687 -33.0683,6.9773 -52.078,2.92526 -69.5573,-14.82657 -10.0263,-10.18261 -15.6543,-22.38753 -16.2422,-35.22281 -0.5706,-12.46014 1.3234,-22.12037 6.4712,-33.00543 13.7405,-29.05432 50.416,-59.09293 87.3283,-71.52519 21.495,-7.23962 53.6167,-10.42724 75.5315,-7.49542 49.6857,6.64705 104.5824,46.50785 120.7332,87.66485 3.0294,7.72002 3.597,11.22898 3.6365,22.48119 0.039,11.0725 -0.4656,14.46375 -2.9755,20 -7.9171,17.46323 -20.2617,29.16788 -35.8361,33.97833 -8.2721,2.555 -20.0825,3.21635 -30.4229,1.70361 z"
         id="path6" />
    </g>
  </g>
</svg>
