<?xml version="1.0" encoding="UTF-8" standalone="no"?>
<svg
   id="Layer_1"
   data-name="Layer 1"
   viewBox="0 0 22.000533 17.055999"
   version="1.1"
   sodipodi:docname="bao.svg"
   width="22.000532"
   height="17.056"
   inkscape:export-filename="ui/public/vault-logo.svg"
   inkscape:export-xdpi="96"
   inkscape:export-ydpi="96"
   xmlns:inkscape="http://www.inkscape.org/namespaces/inkscape"
   xmlns:sodipodi="http://sodipodi.sourceforge.net/DTD/sodipodi-0.dtd"
   xmlns:xlink="http://www.w3.org/1999/xlink"
   xmlns="http://www.w3.org/2000/svg"
   xmlns:svg="http://www.w3.org/2000/svg">
  <sodipodi:namedview
     id="namedview16"
     pagecolor="#ffffff"
     bordercolor="#666666"
     borderopacity="1.0"
     inkscape:showpageshadow="2"
     inkscape:pageopacity="0.0"
     inkscape:pagecheckerboard="0"
     inkscape:deskcolor="#d1d1d1"
     showguides="false" />
  <defs
     id="defs2">
    <style
       id="style1">
      .cls-1 {
        fill: url(#linear-gradient);
      }

      .cls-2 {
        stroke-width: 6px;
      }

      .cls-2, .cls-3 {
        stroke-miterlimit: 10;
      }

      .cls-2, .cls-3, .cls-4, .cls-5 {
        fill: none;
        stroke: #411d18;
      }

      .cls-6 {
        fill: #fffbf3;
      }

      .cls-7 {
        fill: #e6d5ce;
      }

      .cls-8 {
        fill: #ebdacc;
      }

      .cls-9 {
        fill: #411d18;
      }

      .cls-3 {
        stroke-width: 7px;
      }

      .cls-3, .cls-4, .cls-5 {
        stroke-linecap: round;
      }

      .cls-4 {
        stroke-width: 4px;
      }

      .cls-4, .cls-5 {
        stroke-linejoin: round;
      }

      .cls-10 {
        fill: url(#linear-gradient-2);
      }

      .cls-5 {
        stroke-width: 3px;
      }
    </style>
    <linearGradient
       id="linear-gradient"
       x1="101.25"
       y1="161"
       x2="101.25"
       y2="141.25"
       gradientUnits="userSpaceOnUse">
      <stop
         offset="0"
         stop-color="#fdebd8"
         id="stop1" />
      <stop
         offset="1"
         stop-color="#fcd2bc"
         id="stop2" />
    </linearGradient>
    <linearGradient
       id="linear-gradient-2"
       x1="270.57999"
       y1="160.69"
       x2="270.57999"
       y2="140.92999"
       xlink:href="#linear-gradient" />
    <linearGradient
       inkscape:collect="always"
       xlink:href="#linear-gradient"
       id="linearGradient16"
       gradientUnits="userSpaceOnUse"
       x1="101.25"
       y1="161"
       x2="101.25"
       y2="141.25" />
  </defs>
  <g
     id="g16"
     transform="matrix(0.05922921,0,0,0.05922921,-9.5058141e-5,9.4928082e-4)">
    <ellipse
       class="cls-7"
       cx="188.91"
       cy="258.73001"
       rx="176.64999"
       ry="29.219999"
       id="ellipse2" />
    <path
       class="cls-6"
       d="m 156.21474,11.97 c 0.12,-0.64 -27.13,2.49 -28.66,2.83 C 63.984739,28.82 -1.9452613,94.71 3.6047387,163.62 c 2.49,30.94 17.2200003,58.31 41.8900003,77.36 28.82,22.25 65.370001,31.05 101.080001,33.71 36.38,2.71 75.45,1.35 111.37,-5.17 12.05,-2.19 23.95,-5.3 35.41,-9.62 14.52,-5.48 28.27,-13.1 40,-23.32 21.48,-18.72 36.67,-47.39 35.28,-76.15 -1.49,-30.86 -17.75,-59.48 -36.57,-83.13 -60.91,-76.59 -135.19,-64.65 -135.19,-64.65 0,0 -36.68,-21.25 -40.66,-0.68 z"
       id="path2" />
    <path
       class="cls-7"
       d="M 322.51,247.2 C 303.33,263.22 177.62,287.12 82.9,261.81 31.63,248.11 8.04,207.76 3.88,168.93 c 7.81,15.93 19.15,33.27 34.18,42.24 32.19,19.2 123.67,47.44 186.36,27.11 C 287.1,217.95 335.66,195.36 315.9,120.82 296.13,46.28 238.53,16.35 207.47,32.73 l -2.54,-4.8 c 0,0 16.3,-15.01 61.54,-2.91 20.89,9.4 43.93,25.38 65.33,52.27 74.2,93.26 19.99,145.45 -9.29,169.91 z"
       id="path3" />
    <path
       class="cls-2"
       d="m 155.94,11.97 c 0.12,-0.64 -27.13,2.49 -28.66,2.83 C 63.71,28.82 -2.22,94.71 3.33,163.62 c 2.49,30.94 17.22,58.31 41.89,77.36 28.82,22.25 65.37,31.05 101.08,33.71 36.38,2.71 75.45,1.35 111.37,-5.17 12.05,-2.19 23.95,-5.3 35.41,-9.62 14.52,-5.48 28.27,-13.1 40,-23.32 21.48,-18.72 36.67,-47.39 35.28,-76.15 C 366.87,129.57 350.61,100.95 331.79,77.3 270.88,0.71 196.6,12.65 196.6,12.65 c 0,0 -36.68,-21.25 -40.66,-0.68 z"
       id="path4" />
    <path
       class="cls-8"
       d="m 182.26,35.65 c 0,0 -25.85,4.9 -40.09,40.38 -5.36,13.36 -12.05,5.74 -8.47,-4.33 5.17,-14.55 27.2,-45.36 48.56,-36.05 z"
       id="path5" />
    <path
       class="cls-8"
       d="m 210.42,37.81 c 0,0 25.19,13.51 33.48,50.82 2.82,12.71 13.27,8.75 10.73,-5.36 C 251.9,68.08 239.1,38.38 210.42,37.81 Z"
       id="path6" />
    <path
       class="cls-9"
       d="m 203.99,32.57 c -2.22,-9.38 -9.67,-16.03 -17.17,-21.49 -1.2,-0.85 -1.47,-2.56 -0.51,-3.7 1.92,-2.11 4.6,0.19 6.62,0.99 8.65,4.78 15.68,13.81 16.05,23.95 -0.16,3.18 -4.32,3.37 -4.99,0.25 z"
       id="path7" />
    <ellipse
       class="cls-9"
       cx="91.924538"
       cy="153.57425"
       rx="15.2"
       ry="14.85"
       transform="rotate(-13.15)"
       id="ellipse7" />
    <ellipse
       class="cls-9"
       cx="249.23"
       cy="128.64"
       rx="15.2"
       ry="14.85"
       id="ellipse8" />
    <ellipse
       class="cls-1"
       cx="101.25"
       cy="151.13"
       rx="15.69"
       ry="9.8800001"
       id="ellipse9"
       style="fill:url(#linearGradient16)" />
    <ellipse
       class="cls-10"
       cx="270.57999"
       cy="150.81"
       rx="15.69"
       ry="9.8800001"
       id="ellipse10"
       style="fill:url(#linear-gradient-2)" />
    <path
       class="cls-5"
       d="m 150.16,59.27 c 0,0 6.87,-13.18 22.04,-19.93"
       id="path10" />
    <path
       class="cls-5"
       d="m 222.87,43.33 c 0,0 15.5,11.28 19.2,22.43"
       id="path11" />
    <path
       class="cls-5"
       d="m 225.28,26.98 c 0,0 33.94,-1.94 50.38,20.13"
       id="path12" />
    <path
       class="cls-8"
       d="m 167.67,27.84 c 0,0 -23.95,-4.28 -54.64,22.54 -10.84,9.48 -11.44,-0.42 -3.11,-7.48 11.78,-9.98 38.4,-27.67 57.74,-15.06 z"
       id="path13" />
    <path
       class="cls-5"
       d="m 160.42,27.74 c 0,0 -26.07,1.88 -43.79,18.12"
       id="path14" />
    <path
       class="cls-3"
       d="m 201.83,130.16 c 0,0 -0.19,10.43 -13.55,10.43 -17.51,0 -16.38,-10.35 -16.38,-10.35"
       id="path15" />
    <path
       class="cls-4"
       d="m 163.81,15.51 c -2.64,-1.13 -8.66,-2.82 -16.28,-1.98"
       id="path16" />
  </g>
</svg>
